HIERARCHY
ROOT hip
{
  OFFSET 0 0 0
  CHANNELS 6 Xposition Yposition Zposition Zrotation Yrotation Xrotation
  JOINT abdomen
  {
    OFFSET 0 20.6881 -0.73152
    CHANNELS 3 Zrotation Xrotation Yrotation
    JOINT chest
    {
      OFFSET 0 11.7043 -0.48768
      CHANNELS 3 Zrotation Xrotation Yrotation
      JOINT neck
      {
        OFFSET 0 22.1894 -2.19456
        CHANNELS 3 Zrotation Xrotation Yrotation
        JOINT head
        {
          OFFSET -0.24384 7.07133 1.2192
          CHANNELS 3 Zrotation Xrotation Yrotation
          JOINT leftEye
          {
            OFFSET 4.14528 8.04674 8.04672
            CHANNELS 3 Zrotation Xrotation Yrotation
            End Site
            {
              OFFSET 1 0 0
            }
          }
          JOINT rightEye
          {
            OFFSET -3.6576 8.04674 8.04672
            CHANNELS 3 Zrotation Xrotation Yrotation
            End Site
            {
              OFFSET 1 0 0
            }
          }
        }
      }
      JOINT rCollar
      {
        OFFSET -2.68224 19.2634 -4.8768
        CHANNELS 3 Zrotation Xrotation Yrotation
        JOINT rShldr
        {
          OFFSET -8.77824 -1.95073 1.46304
          CHANNELS 3 Zrotation Xrotation Yrotation
          JOINT rForeArm
          {
            OFFSET -28.1742 -1.7115 0.48768
            CHANNELS 3 Zrotation Xrotation Yrotation
            JOINT rHand
            {
              OFFSET -22.5879 0.773209 7.07136
              CHANNELS 3 Zrotation Xrotation Yrotation
              JOINT rThumb1
              {
                OFFSET -1.2192 -0.487915 3.41376
                CHANNELS 3 Zrotation Xrotation Yrotation
                JOINT rThumb2
                {
                  OFFSET -3.37035 -0.52449 3.41376
                  CHANNELS 3 Zrotation Xrotation Yrotation
                  End Site
                  {
                    OFFSET -1.78271 -1.18214 1.43049
                  }
                }
              }
              JOINT rIndex1
              {
                OFFSET -7.75947 0.938293 5.60832
                CHANNELS 3 Zrotation Xrotation Yrotation
                JOINT rIndex2
                {
                  OFFSET -2.54057 -0.884171 1.56538
                  CHANNELS 3 Zrotation Xrotation Yrotation
                  End Site
                  {
                    OFFSET -1.62519 -0.234802 1.16502
                  }
                }
              }
              JOINT rMid1
              {
                OFFSET -8.24714 1.18213 3.41376
                CHANNELS 3 Zrotation Xrotation Yrotation
                JOINT rMid2
                {
                  OFFSET -3.10165 -0.590103 1.0647
                  CHANNELS 3 Zrotation Xrotation Yrotation
                  End Site
                  {
                    OFFSET -2.48547 -0.328903 0.83742
                  }
                }
              }
              JOINT rRing1
              {
                OFFSET -8.82822 0.546677 1.51678
                CHANNELS 3 Zrotation Xrotation Yrotation
                JOINT rRing2
                {
                  OFFSET -2.60934 -0.819778 -0.0198488
                  CHANNELS 3 Zrotation Xrotation Yrotation
                  End Site
                  {
                    OFFSET -2.33842 -0.294052 0.168128
                  }
                }
              }
              JOINT rPinky1
              {
                OFFSET -8.27202 -0.0477905 -0.4584
                CHANNELS 3 Zrotation Xrotation Yrotation
                JOINT rPinky2
                {
                  OFFSET -1.82734 -0.647385 -0.700984
                  CHANNELS 3 Zrotation Xrotation Yrotation
                  End Site
                  {
                    OFFSET -1.69225 -0.51767 -0.607171
                  }
                }
              }
            }
          }
        }
      }
      JOINT lCollar
      {
        OFFSET 2.68224 19.2634 -4.8768
        CHANNELS 3 Zrotation Xrotation Yrotation
        JOINT lShldr
        {
          OFFSET 8.77824 -1.95073 1.46304
          CHANNELS 3 Zrotation Xrotation Yrotation
          JOINT lForeArm
          {
            OFFSET 28.1742 -1.7115 0.48768
            CHANNELS 3 Zrotation Xrotation Yrotation
            JOINT lHand
            {
              OFFSET 22.5879 0.773209 7.07136
              CHANNELS 3 Zrotation Xrotation Yrotation
              JOINT lThumb1
              {
                OFFSET 1.2192 -0.487915 3.41376
                CHANNELS 3 Zrotation Xrotation Yrotation
                JOINT lThumb2
                {
                  OFFSET 3.37035 -0.52449 3.41376
                  CHANNELS 3 Zrotation Xrotation Yrotation
                  End Site
                  {
                    OFFSET 1.78271 -1.18214 1.43049
                  }
                }
              }
              JOINT lIndex1
              {
                OFFSET 7.75947 0.938293 5.60832
                CHANNELS 3 Zrotation Xrotation Yrotation
                JOINT lIndex2
                {
                  OFFSET 2.54057 -0.884171 1.56538
                  CHANNELS 3 Zrotation Xrotation Yrotation
                  End Site
                  {
                    OFFSET 1.62519 -0.234802 1.16502
                  }
                }
              }
              JOINT lMid1
              {
                OFFSET 8.24714 1.18213 3.41376
                CHANNELS 3 Zrotation Xrotation Yrotation
                JOINT lMid2
                {
                  OFFSET 3.10165 -0.590103 1.0647
                  CHANNELS 3 Zrotation Xrotation Yrotation
                  End Site
                  {
                    OFFSET 2.48547 -0.328903 0.83742
                  }
                }
              }
              JOINT lRing1
              {
                OFFSET 8.82822 0.546677 1.51678
                CHANNELS 3 Zrotation Xrotation Yrotation
                JOINT lRing2
                {
                  OFFSET 2.60934 -0.819778 -0.0198488
                  CHANNELS 3 Zrotation Xrotation Yrotation
                  End Site
                  {
                    OFFSET 2.33842 -0.294052 0.168128
                  }
                }
              }
              JOINT lPinky1
              {
                OFFSET 8.27202 -0.0477905 -0.4584
                CHANNELS 3 Zrotation Xrotation Yrotation
                JOINT lPinky2
                {
                  OFFSET 1.82734 -0.647385 -0.700984
                  CHANNELS 3 Zrotation Xrotation Yrotation
                  End Site
                  {
                    OFFSET 1.69225 -0.51767 -0.607171
                  }
                }
              }
            }
          }
        }
      }
    }
  }
  JOINT rButtock
  {
    OFFSET -8.77824 4.35084 1.2192
    CHANNELS 3 Zrotation Xrotation Yrotation
    JOINT rThigh
    {
      OFFSET 0 -1.70687 -2.19456
      CHANNELS 3 Zrotation Xrotation Yrotation
      JOINT rShin
      {
        OFFSET 0 -36.8199 0.73152
        CHANNELS 3 Zrotation Xrotation Yrotation
        JOINT rFoot
        {
          OFFSET 0.73152 -45.1104 -5.12064
          CHANNELS 3 Zrotation Xrotation Yrotation
          End Site
          {
            OFFSET -1.1221 -3.69964 12.103
          }
        }
      }
    }
  }
  JOINT lButtock
  {
    OFFSET 8.77824 4.35084 1.2192
    CHANNELS 3 Zrotation Xrotation Yrotation
    JOINT lThigh
    {
      OFFSET 0 -1.70687 -2.19456
      CHANNELS 3 Zrotation Xrotation Yrotation
      JOINT lShin
      {
        OFFSET 0 -36.8199 0.73152
        CHANNELS 3 Zrotation Xrotation Yrotation
        JOINT lFoot
        {
          OFFSET -0.73152 -45.1104 -5.12064
          CHANNELS 3 Zrotation Xrotation Yrotation
          End Site
          {
            OFFSET 1.1221 -3.69964 12.103
          }
        }
      }
    }
  }
}
MOTION
Frames:	4
Frame Time:	0.00833333
1.51593 85.1968 -65.5291 0.0 0.0 0.0 0.583967 -0.00303823 0.0166886 0.16117 -0.0046852 0.0279253 8.35412e-15 0.0 1.86361e-17 2.52457e-14 3.18055e-15 6.52262e-17 -0.0 0.0 0.0 -0.0 0.0 0.0 4.22301e-15 4.27076e-18 1.49089e-16 9.06396e-14 2.60905e-16 1.59028e-15 1.529e-12 -4.50446e-13 -6.36111e-15 1.74658e-11 4.85581e-13 8.26944e-14 4.12027e-11 7.4299e-14 1.62208e-13 7.11462e-11 1.24042e-13 2.71142e-13 4.12065e-11 7.51406e-14 1.52667e-13 7.73091 5.47488 0.417314 4.12022e-11 7.43455e-14 1.55847e-13 2.90554 0.965183 0.102902 4.12061e-11 7.39479e-14 1.54257e-13 10.2786 0.731801 0.0259123 4.11983e-11 7.7526e-14 1.52667e-13 2.22167 -0.733487 -0.20892 4.12622e-15 4.65902e-18 -1.49089e-16 8.71234e-14 5.59082e-17 -1.98785e-16 1.52259e-12 4.63963e-13 -9.54166e-15 1.74681e-11 -4.25846e-13 9.54166e-14 4.11992e-11 8.11605e-14 1.49486e-13 7.11597e-11 1.43125e-13 2.62396e-13 4.11934e-11 8.07066e-14 1.52667e-13 -7.73091 5.47488 -0.417314 4.12e-11 8.10047e-14 1.49486e-13 -2.90554 0.965183 -0.102902 4.11893e-11 8.16011e-14 1.54257e-13 -10.2786 0.731801 -0.0259123 4.12065e-11 8.46823e-14 1.49486e-13 -2.22167 -0.733487 0.20892 -2.03217e-16 0.0 -3.88251e-19 0.940022 -4.56521 -0.0787578 -0.00191323 2.71742 -0.00754418 -0.501073 1.84803 0.0947644 2.03217e-16 0.0 3.88251e-19 -0.0507271 -2.31868 0.0217178 0.00815989 -1.35176 0.0697823 0.492747 3.67058 -0.130799
1.21481 84.4922 -66.4014 0.2987 -7.4015 2.3575 -0.103324 0.136129 0.294504 0.135819 -0.391608 0.109194 -2.91561 2.25292 -1.65155 4.13163 -3.19259 -2.4843 -0.0 0.0 0.0 -0.0 0.0 0.0 9.02675e-15 4.02256e-15 3.9788e-14 21.1603 7.05299 0.127329 -3.78948 -1.64431 6.00021 0.0564767 5.27571 0.730147 -4.76739e-10 5.26255e-10 -2.30175e-12 -8.23358e-10 9.05105e-10 5.00911e-12 -4.76736e-10 5.26256e-10 -2.31602e-12 7.73091 5.47488 0.417314 -4.76741e-10 5.26254e-10 -2.30637e-12 2.90554 0.965183 0.102902 -4.76735e-10 5.26253e-10 -2.3073e-12 10.2786 0.731801 0.0259123 -4.76744e-10 5.26256e-10 -2.30608e-12 2.22167 -0.733487 -0.20892 8.9755e-15 4.02254e-15 3.95011e-14 -22.1653 0.166455 0.216088 2.84949 -1.10578 -4.63479 -0.0111199 2.33947 -0.327801 -4.38003e-10 -9.5256e-10 1.54761e-10 -7.56091e-10 -1.64819e-09 2.71647e-10 -4.3801e-10 -9.52561e-10 1.54767e-10 -7.73091 5.47488 -0.417314 -4.38002e-10 -9.52561e-10 1.54764e-10 -2.90554 0.965183 -0.102902 -4.38013e-10 -9.52561e-10 1.54767e-10 -10.2786 0.731801 -0.0259123 -4.37997e-10 -9.52558e-10 1.54764e-10 -2.22167 -0.733487 0.20892 -2.03217e-16 0.0 -3.88251e-19 0.900872 -5.69023 5.79634 0.00282071 6.61356 0.0688455 -0.860812 -1.04966 -5.03187 2.03217e-16 0.0 3.88251e-19 0.108445 -2.63693 -2.1252 -0.00189302 2.13873 -0.0156588 0.851108 0.113948 5.38573
1.23109 84.4899 -66.4017 0.3707 -7.397 2.3547 -0.831325 0.283359 0.587827 0.110815 -0.800966 0.194952 -5.85764 4.62934 -3.4062 8.19788 -6.54631 -5.13682 -0.0 0.0 0.0 -0.0 0.0 0.0 1.46019e-14 9.99142e-15 7.86939e-14 43.4941 14.5096 0.266784 -7.42332 -3.32251 12.3592 -0.0324187 10.8472 1.52249 -1.01826e-09 1.08575e-09 -1.37788e-11 -1.75873e-09 1.86759e-09 -5.37982e-12 -1.01826e-09 1.08575e-09 -1.37982e-11 7.73091 5.47488 0.417314 -1.01826e-09 1.08575e-09 -1.37815e-11 2.90554 0.965183 0.102902 -1.01826e-09 1.08575e-09 -1.37817e-11 10.2786 0.731801 0.0259123 -1.01827e-09 1.08575e-09 -1.37776e-11 2.22167 -0.733487 -0.20892 1.46018e-14 9.99092e-15 7.84174e-14 -45.5995 0.34153 0.444299 5.66748 -2.25034 -9.53912 0.00632786 4.81332 -0.676289 -9.51881e-10 -1.94477e-09 3.27385e-10 -1.64318e-09 -3.36499e-09 5.74439e-10 -9.51889e-10 -1.94477e-09 3.27393e-10 -7.73091 5.47488 -0.417314 -9.5188e-10 -1.94477e-09 3.27391e-10 -2.90554 0.965183 -0.102902 -9.51892e-10 -1.94477e-09 3.27393e-10 -10.2786 0.731801 -0.0259123 -9.51876e-10 -1.94477e-09 3.27391e-10 -2.22167 -0.733487 0.20892 -2.03217e-16 0.0 -3.88251e-19 1.10974 -6.78869 12.033 -0.00353718 10.7328 0.151291 -1.80277 -4.05157 -10.4756 2.03217e-16 0.0 3.88251e-19 0.251364 -2.96853 -4.39236 -0.00115768 5.82747 -0.106412 1.96976 -3.57236 11.2358
1.23337 84.4863 -66.409 0.3685 -7.3589 2.3842 -1.48196 0.414422 0.850155 0.088411 -1.16544 0.27178 -8.35541 6.73623 -4.98532 11.5571 -9.50526 -7.54552 -0.0 0.0 0.0 -0.0 0.0 0.0 1.86342e-14 1.20591e-14 1.19066e-13 63.3811 21.1585 0.4065 -10.3512 -4.71694 18.0565 -0.247353 15.8167 2.26704 -1.51262e-09 1.57862e-09 -7.22968e-12 -2.61237e-09 2.71507e-09 1.44851e-11 -1.51262e-09 1.57862e-09 -7.25338e-12 7.73091 5.47488 0.417314 -1.51263e-09 1.57861e-09 -7.23081e-12 2.90554 0.965183 0.102902 -1.51262e-09 1.57861e-09 -7.2304e-12 10.2786 0.731801 0.0259123 -1.51263e-09 1.57861e-09 -7.22356e-12 2.22167 -0.733487 -0.20892 1.86741e-14 1.20583e-14 1.18801e-13 -66.4995 0.499336 0.648286 8.01692 -3.23062 -13.9244 0.0474594 7.01747 -0.989999 -1.39641e-09 -2.85784e-09 4.63985e-10 -2.41059e-09 -4.94487e-09 8.14418e-10 -1.39642e-09 -2.85784e-09 4.63996e-10 -7.73091 5.47488 -0.417314 -1.39641e-09 -2.85784e-09 4.63994e-10 -2.90554 0.965183 -0.102902 -1.39642e-09 -2.85784e-09 4.63994e-10 -10.2786 0.731801 -0.0259123 -1.3964e-09 -2.85784e-09 4.63993e-10 -2.22167 -0.733487 0.20892 -2.03217e-16 0.0 -3.88251e-19 1.50306 -7.65529 17.6222 -0.019779 14.4058 0.227383 -3.12464 -6.61364 -15.3874 2.03217e-16 0.0 3.88251e-19 0.355418 -3.25833 -6.42267 0.0094737 9.11965 -0.188857 3.60381 -6.71113 16.5347
